<?xml version="1.0" encoding="iso-8859-1"?>
<!-- Generator: Adobe Illustrator 14.0.0, SVG Export Plug-In . SVG Version: 6.00 Build 43363)  -->
<!DOCTYPE svg PUBLIC "-//W3C//DTD SVG 1.1//EN" "http://www.w3.org/Graphics/SVG/1.1/DTD/svg11.dtd">
<svg version="1.1" id="&#x30EC;&#x30A4;&#x30E4;&#x30FC;_1"
	 xmlns="http://www.w3.org/2000/svg" xmlns:xlink="http://www.w3.org/1999/xlink" x="0px" y="0px" width="212.6px" height="66.61px"
	 viewBox="0 0 212.6 66.61" style="enable-background:new 0 0 212.6 66.61;" xml:space="preserve">
<style type="text/css">
<![CDATA[
	.st0{fill:url(#SVGID_1_);}
	.st1{fill:url(#SVGID_2_);}
	.st2{fill:#FFFFFF;}
]]>
</style>
<g>
	<path class="st2" d="M94.289,22.067c-0.721,0-1.521-0.031-2.372-0.124c-0.593-0.062-0.497-0.975,0.096-0.913
		c0.801,0.077,1.507,0.125,2.18,0.125c0.609,0,0.658-0.062,0.658-0.974v-5.182c-2.02,2.042-4.294,3.588-7.1,5.182
		c-0.593,0.34-1.073-0.526-0.529-0.851c2.725-1.624,5.385-3.804,7.564-6.232h-7.147c-0.61,0-0.61-0.882,0-0.882h7.244v-1.995
		c0-0.293,0.176-0.464,0.48-0.464h0.657c0.32,0,0.48,0.155,0.48,0.464v1.995h2.788c0.594,0,0.594,0.882,0,0.882H96.5v7.098
		C96.5,21.758,96.148,22.067,94.289,22.067z"/>
	<path class="st2" d="M107.665,13.577c-1.154-0.897-2.308-1.732-3.654-2.49c-0.289-0.155-0.353-0.372-0.208-0.619l0.016-0.015
		c0.161-0.247,0.353-0.324,0.641-0.216c1.49,0.51,2.757,1.113,4.199,1.902c0.271,0.154,0.336,0.386,0.16,0.649l-0.498,0.696
		C108.146,13.731,107.905,13.777,107.665,13.577z M104.7,20.613c4.359-1.794,7.771-4.376,10.77-8.166
		c0.176-0.231,0.4-0.278,0.641-0.139c0.225,0.139,0.272,0.356,0.112,0.603c-2.548,4.052-6.089,7.299-10.849,9.218
		c-0.273,0.107-0.497,0.03-0.625-0.249l-0.304-0.649C104.315,20.953,104.412,20.736,104.7,20.613z"/>
	<path class="st2" d="M131.201,14.072c-1.763,4.361-3.895,6.619-7.964,8.413c-0.273,0.124-0.498,0.062-0.626-0.17
		c-0.145-0.248-0.063-0.449,0.208-0.604c3.543-2.072,4.776-4.036,6.123-7.547h-8.51c-0.321,0-0.498-0.139-0.48-0.417
		c0.016-0.263,0.176-0.402,0.48-0.402h10.271C131.025,13.344,131.441,13.469,131.201,14.072z M121.281,10.453
		c0-0.263,0.177-0.417,0.481-0.417h7.436c0.32,0,0.48,0.154,0.48,0.417c0,0.279-0.16,0.434-0.48,0.434h-7.436
		C121.442,10.886,121.281,10.731,121.281,10.453z"/>
	<path class="st2" d="M142.654,22.468h-0.69c-0.303,0-0.479-0.154-0.479-0.463v-7.284c-1.459,0.99-3.382,2.072-5.866,2.984
		c-0.545,0.201-0.881-0.51-0.336-0.727c4.055-1.608,7.227-4.191,10.031-7.346c0.209-0.231,0.449-0.247,0.689-0.046l0.514,0.448
		c0.224,0.201,0.24,0.433,0.016,0.665c-1.298,1.361-2.228,2.165-3.397,2.984v8.32C143.135,22.314,142.974,22.468,142.654,22.468z"/>
	<path class="st2" d="M155.726,13.577c-1.154-0.897-2.309-1.732-3.654-2.49c-0.287-0.155-0.352-0.372-0.208-0.619l0.016-0.015
		c0.161-0.247,0.353-0.324,0.642-0.216c1.49,0.51,2.756,1.113,4.199,1.902c0.271,0.154,0.336,0.386,0.16,0.649l-0.497,0.696
		C156.206,13.731,155.966,13.777,155.726,13.577z M152.761,20.613c4.358-1.794,7.771-4.376,10.77-8.166
		c0.176-0.231,0.4-0.278,0.641-0.139c0.225,0.139,0.272,0.356,0.112,0.603c-2.548,4.052-6.09,7.299-10.85,9.218
		c-0.272,0.107-0.497,0.03-0.625-0.249l-0.304-0.649C152.376,20.953,152.472,20.736,152.761,20.613z"/>
	<path class="st2" d="M176.569,17.489c-0.545,2.428-2.564,4.222-5.145,4.795c-0.561,0.123-0.801-0.542-0.24-0.743
		c1.522-0.542,2.549-1.331,3.237-2.598c0.769-1.438,0.802-3.202,0.802-5.104h-3.703v3.541c0,0.294-0.159,0.464-0.48,0.464h-0.672
		c-0.321,0-0.482-0.17-0.482-0.464V13.84h-2.852c-0.593,0-0.576-0.804,0-0.804h2.852v-2.691c0-0.294,0.178-0.464,0.482-0.464h0.688
		c0.306,0,0.482,0.155,0.482,0.464v2.691h3.669v-2.738c0-0.31,0.177-0.464,0.481-0.464h0.737c0.304,0,0.479,0.154,0.479,0.464v2.738
		h2.901c0.577,0,0.577,0.804,0,0.804h-2.901C176.905,15.231,176.841,16.33,176.569,17.489z"/>
	<path class="st2" d="M184.353,11.025h10.16c0.416,0,0.641,0.216,0.641,0.618v9.093c0,0.402-0.225,0.619-0.641,0.619h-10.16
		c-0.416,0-0.642-0.217-0.642-0.619v-9.093C183.711,11.241,183.937,11.025,184.353,11.025z M185.409,11.953v8.475h8.045v-8.475
		H185.409z"/>
	<path class="st2" d="M203.786,13.577c-1.153-0.897-2.308-1.732-3.654-2.49c-0.289-0.155-0.353-0.372-0.208-0.619l0.016-0.015
		c0.161-0.247,0.353-0.324,0.642-0.216c1.49,0.51,2.756,1.113,4.198,1.902c0.272,0.154,0.337,0.386,0.16,0.649l-0.496,0.696
		C204.267,13.731,204.026,13.777,203.786,13.577z M200.821,20.613c4.359-1.794,7.771-4.376,10.77-8.166
		c0.176-0.231,0.4-0.278,0.641-0.139c0.225,0.139,0.271,0.356,0.111,0.603c-2.547,4.052-6.088,7.299-10.849,9.218
		c-0.272,0.107-0.497,0.03-0.624-0.249l-0.305-0.649C200.437,20.953,200.532,20.736,200.821,20.613z"/>
</g>
<g>
	<path class="st2" d="M97.636,36.385c-2.035,6.599-5.349,12.063-11.649,18.475c-0.459,0.409-0.952,0.409-1.346,0.032
		c-0.426-0.441-0.459-0.881-0.032-1.322c5.349-6.188,7.514-11.246,9.155-18.064c0.163-0.628,0.59-0.848,1.214-0.754l1.968,0.471
		C97.57,35.348,97.767,36.008,97.636,36.385z M110.235,52.849c-1.345-6.032-3.215-11.813-7.645-16.402
		c-0.427-0.438-0.493-0.847-0.131-1.225c0.394-0.345,0.853-0.377,1.312-0.031c5.382,4.178,8.303,9.583,10.534,16.59
		c0.197,0.597-0.033,1.006-0.656,1.162l-2.199,0.597C110.794,53.696,110.368,53.444,110.235,52.849z"/>
	<path class="st2" d="M144.819,39.368c-1.87,3.049-3.053,4.338-5.447,7.07c-0.853,0.942-2.395,0.126-1.673-1.006
		c1.476-2.293,2.231-3.863,3.117-5.906l-10.993,1.665v4.43c0,1.415-0.033,2.796,0.098,4.117c0.1,1.194,0.361,2.074,1.182,2.545
		s2.133,0.565,3.479,0.597c2.725,0.095,5.84-0.314,9.188-0.942c0.655-0.125,1.083,0.188,1.115,0.816l0.065,1.005
		c0.033,0.598-0.295,0.943-0.918,1.037c-4.069,0.566-6.793,0.848-9.582,0.691c-1.51-0.064-3.084-0.219-4.791-1.006
		c-1.936-0.912-2.691-2.732-2.92-4.492c-0.23-1.541-0.164-2.922-0.164-4.368v-4.116l-6.826,1.069
		c-1.181,0.188-1.411-1.538-0.229-1.728l7.021-1.037V32.08c0-0.597,0.361-0.942,0.984-0.942h1.378c0.657,0,0.985,0.313,0.985,0.942
		v7.352l13.781-1.916C145.147,37.296,145.54,38.176,144.819,39.368z"/>
	<path class="st2" d="M177.171,34.625c-2.625,9.96-8.466,16.966-18.342,21.679c-0.592,0.283-1.051,0.125-1.248-0.344
		c-0.229-0.505-0.065-0.88,0.492-1.194c7.974-4.557,12.142-11.06,14.799-19.827H155.12c-0.623,0-0.951-0.281-0.984-0.848
		c0-0.534,0.295-0.848,0.951-0.848h21.001C176.777,33.243,177.466,33.62,177.171,34.625z M173.462,52.942h-0.195
		c-0.591,0-0.854-0.252-0.854-0.785v-3.488c0-0.533,0.263-0.785,0.854-0.785h0.195c0.559,0,0.887,0.252,0.887,0.785v3.488
		C174.349,52.69,174.021,52.942,173.462,52.942z M176.448,52.942h-0.195c-0.559,0-0.887-0.252-0.887-0.785v-3.488
		c0-0.533,0.328-0.785,0.887-0.785h0.195c0.592,0,0.854,0.252,0.854,0.785v3.488C177.302,52.69,177.04,52.942,176.448,52.942z"/>
	<path class="st2" d="M187.833,33.84h20.804c0.853,0,1.313,0.44,1.313,1.257v18.473c0,0.818-0.46,1.258-1.313,1.258h-20.804
		c-0.854,0-1.313-0.439-1.313-1.258V35.097C186.521,34.28,186.979,33.84,187.833,33.84z M189.999,35.726v17.217h16.473V35.726
		H189.999z"/>
</g>
<g>
	<linearGradient id="SVGID_1_" gradientUnits="userSpaceOnUse" x1="-4.917" y1="19.6597" x2="48.8964" y2="74.8072">
		<stop  offset="0" style="stop-color:#E62488"/>
		<stop  offset="0.5091" style="stop-color:#2A61AD"/>
		<stop  offset="1" style="stop-color:#2663AF"/>
	</linearGradient>
	<path class="st0" d="M9.163-0.046c0,0-8.994,3.459-8.994,11.247c0,7.789,0,44.661,0,44.661s-0.388,4.11,4.497,8.085
		c2.92,2.57,6.684,2.725,7.582,2.725c0.897,0,2.648-0.126,9.006-3.614c7.95-4.419,12.841-7.255,12.841-7.255s0-22.663,0-22.033
		s0.252-5.077-5.929-5.077s-6.279,4.776-6.375,7.413c0,1.557,0,19.717,0,19.717s0.149,1.111-0.963,1.111c-1.409,0-10.036,0-10.276,0
		c-0.387,0-0.694-0.056-0.694-1.244V0.599C9.858,0.599,10.061-0.173,9.163-0.046z"/>
	<linearGradient id="SVGID_2_" gradientUnits="userSpaceOnUse" x1="15.4248" y1="-0.1885" x2="69.2366" y2="54.9574">
		<stop  offset="0" style="stop-color:#E62488"/>
		<stop  offset="0.5091" style="stop-color:#2A61AD"/>
		<stop  offset="1" style="stop-color:#2663AF"/>
	</linearGradient>
	<path class="st1" d="M21.606,4.749c0,0,0,18.23,0,18.68c0,1.45,0.944,0.223,1.399-0.231c1.025-1.026,3.252-4.513,10.405-4.383
		c3.937,0,6.874,1.693,8.19,2.744c1.318,1.05,4.254,3.354,4.254,10.757c0,8.812,0,16.455,0,16.455S55.138,44.155,58,41.126
		c2.558-2.279,3.058-6.574,3.058-8.367c0-5.365-4.146-8.038-4.847-8.552c-0.7-0.514-33.651-19.884-33.651-19.884
		S21.606,3.786,21.606,4.749z"/>
</g>
</svg>
